<svg xmlns="http://www.w3.org/2000/svg" style="display: none;"><symbol id="campfire" viewBox="0 0 144.083 144"><title>campfire</title><path d="M109.236,93.668l0.006-0.02l-0.389-0.136c-0.008-0.003-0.014-0.007-0.021-0.009c-0.008-0.003-0.018-0.005-0.025-0.008 L97.312,89.48c4.301-4.338,6.875-9.799,6.875-15.732c0-13.344-4.523-20.569-8.898-27.556c-4.057-6.48-7.891-12.602-7.891-23.948v-4 c0,0-1.605,0.298-3,1c-2.547,1.283-18.901,8.092-21.376,27.783c-1.084-1.499-2.04-3.978-2.04-8.058v-7.243l-5.121,5.122 c-13.797,13.796-17.826,23.207-15.97,37.293c0.787,5.973,3.309,11.161,7.139,15.25l-11.749,4.104 c-0.011,0.003-0.021,0.006-0.031,0.009c-0.009,0.004-0.017,0.008-0.024,0.011l-0.384,0.134l0.007,0.02 c-4.565,1.838-6.938,6.968-5.299,11.659c1.299,3.724,4.82,6.225,8.764,6.225c0.896,0,1.783-0.138,2.644-0.395l0.006,0.017 l0.389-0.137c0.008-0.002,0.015-0.004,0.022-0.006c0.006-0.002,0.012-0.006,0.018-0.008l21.527-7.52l0.07,13.01 c0,0.004-0.001,0.009-0.001,0.013s0.001,0.008,0.001,0.012l0.002,0.422h0.021c0.256,4.888,4.313,8.796,9.254,8.796h0.054 c2.48-0.012,4.805-0.99,6.549-2.752c1.639-1.655,2.566-3.817,2.666-6.129h0.02v-0.016v-13.22l21.129,7.381 c0.01,0.003,0.018,0.008,0.027,0.011c0.01,0.004,0.021,0.006,0.033,0.01l0.377,0.133l0.006-0.017 c0.861,0.257,1.748,0.395,2.645,0.395c3.943,0,7.465-2.501,8.762-6.223C116.173,100.637,113.802,95.508,109.236,93.668z M39.4,105.364l-0.011,0.003c-0.35,0.122-0.712,0.185-1.076,0.185c-1.395,0-2.639-0.884-3.099-2.202 c-0.596-1.705,0.305-3.576,2.006-4.177l0.019-0.007c0.349-0.121,0.71-0.183,1.072-0.183c1.394,0,2.64,0.886,3.1,2.202 C42.006,102.893,41.105,104.766,39.4,105.364z M47.582,102.506c0.029-1.093-0.125-2.208-0.507-3.3 c-0.378-1.081-0.947-2.054-1.655-2.897l6.986-2.44c2.599,1.677,5.529,2.993,8.723,3.905L47.582,102.506z M75.552,116.471 c0.002,0.872-0.334,1.693-0.947,2.313c-0.617,0.623-1.439,0.969-2.318,0.973l-0.021,3v-3c-1.788,0-3.251-1.449-3.275-3.235v-0.059 c0.003-0.866,0.337-1.681,0.945-2.296c0.616-0.623,1.438-0.968,2.335-0.973c1.795,0,3.264,1.458,3.281,3.25V116.471z M68.99,107.798 v-6.415l3.052-1.066l3.431,1.198l0.033,6.282c-1.021-0.383-2.125-0.604-3.284-0.604C71.098,107.199,70.01,107.413,68.99,107.798z M72.027,93.25c-14.095,0-24.618-7.994-26.187-19.894c-1.231-9.34,0.058-16.594,9.968-27.732c2.39,8.564,9.162,9.554,9.51,9.598 l3.384,0.437v-3.412c0-14.074,8.013-22.043,12.901-25.322c0.924,10.19,4.818,16.411,8.6,22.451 c4.107,6.558,7.984,12.751,7.984,24.372C98.187,84.502,86.453,93.25,72.027,93.25z M97.009,99.206 c-0.383,1.092-0.537,2.207-0.508,3.3L82.888,97.75c3.215-0.917,6.189-2.231,8.838-3.865l6.938,2.424 C97.957,97.152,97.386,98.125,97.009,99.206z M108.869,103.352c-0.459,1.316-1.703,2.2-3.098,2.2c-0.363,0-0.723-0.062-1.07-0.183 l-0.021-0.007c-1.701-0.601-2.602-2.472-2.006-4.177c0.459-1.316,1.705-2.202,3.1-2.202c0.363,0,0.725,0.063,1.072,0.183 l0.016,0.006C108.564,99.771,109.464,101.645,108.869,103.352z"/></symbol><symbol id="tent" viewBox="0 0 483.32 483.32"><title>tent</title><g> <g> <rect x="341.664" y="465.66" width="16" height="16"/> </g> </g><g> <g> <rect x="313.674" y="338.617" transform="matrix(0.8805 -0.4741 0.4741 0.8805 -150.0898 200.0408)" width="16" height="118.12"/> </g> </g><g> <g> <path d="M96.008,231.316l11.312-11.312l-45.656-45.656v-25.376l34.344,34.344l11.312-11.312l-48-48l-0.056,0.056 c-2.961-3.123-7.892-3.255-11.016-0.294c-0.085,0.08-0.167,0.162-0.248,0.246l-48,48l11.312,11.312l34.352-34.352v25.376 L0.008,220.004l11.312,11.312l34.344-34.344v25.376L0.008,268.004l11.312,11.312l34.344-34.344v25.376L0.008,316.004 l11.312,11.312l34.344-34.344V481.66h16V292.972l34.344,34.344l11.312-11.312l-45.656-45.656v-25.376l34.344,34.344l11.312-11.312 l-45.656-45.656v-25.376L96.008,231.316z"/> </g> </g><g> <g> <path d="M472.008,263.316l11.312-11.312l-45.656-45.656v-25.376l34.344,34.344l11.312-11.312l-48-48l-0.056,0.056 c-2.961-3.123-7.893-3.255-11.016-0.294c-0.085,0.08-0.167,0.162-0.248,0.246l-48,48l11.312,11.312l34.352-34.352v25.376 l-45.656,45.656l11.312,11.312l34.344-34.344v25.376l-45.656,45.656l11.312,11.312l34.344-34.344v76.688l-16.8-35.416 c-1.316-2.788-4.117-4.571-7.2-4.584h-104v-60.688l34.344,34.344l11.312-11.312l-45.656-45.656v-25.376l34.344,34.344 l11.312-11.312l-45.656-45.656v-25.376l34.344,34.344l11.312-11.312l-45.656-45.656v-25.376l34.344,34.344l11.312-11.312l-48-48 l-0.056,0.056c-2.961-3.123-7.893-3.255-11.016-0.294c-0.085,0.08-0.167,0.162-0.248,0.246l-48,48l11.312,11.312l34.352-34.352 v25.376l-45.656,45.656l11.312,11.312l34.344-34.344v25.376l-45.656,45.656l11.312,11.312l34.344-34.344v25.376l-45.656,45.656 l11.312,11.312l34.344-34.344v60.688h-112c-2.257,0.013-4.4,0.992-5.888,2.688c-0.473,0.473-0.874,1.012-1.192,1.6l-80,152 c-2.05,3.914-0.539,8.749,3.375,10.799c1.143,0.599,2.415,0.912,3.705,0.913h240v-16h-75.2l-71.552-136H392.6l64.424,136h-83.36 v16h96c4.418-0.017,7.986-3.612,7.97-8.03c-0.004-1.174-0.267-2.333-0.77-3.394l-39.2-82.808V276.972l34.344,34.344l11.312-11.312 l-45.656-45.656v-25.376L472.008,263.316z M157.664,465.66H98.912l58.752-111.624V465.66z M232.416,465.66h-58.752V354.036 L232.416,465.66z"/> </g> </g><g> <g> <path d="M153.664,1.66c-4.418,0.001-7.999,3.583-7.998,8.002c0,2.121,0.843,4.154,2.342,5.654 c8.262,7.425,13.601,17.556,15.056,28.568c1.516,13.506-8.203,25.684-21.709,27.2c-1.825,0.205-3.667,0.205-5.491,0l0.024-0.024 c-11.012-1.455-21.143-6.794-28.568-15.056c-3.125-3.124-8.19-3.123-11.314,0.002c-1.499,1.5-2.342,3.534-2.342,5.654 c0,33.137,26.863,60,60,60s60-26.863,60-60S186.801,1.66,153.664,1.66z M193.287,80.838 c-10.592,21.871-36.908,31.015-58.778,20.423c-8.904-4.312-16.095-11.499-20.412-20.401c6.371,3.432,13.381,5.515,20.592,6.12 c12.063,1.097,23.998-3.169,32.632-11.664c13.512-14.532,15.773-36.253,5.544-53.256 C194.735,32.652,203.878,58.968,193.287,80.838z"/> </g> </g></symbol><symbol id="cheers" viewBox="0 -1 473.02425 473"><title>cheers</title><path d="m315.207031.0117188c-13.253906 0-23.996093 10.7460932-23.996093 24.0000002 0 13.253906 10.742187 23.996093 23.996093 23.996093 13.253907 0 24-10.742187 24-23.996093 0-13.253907-10.746093-24.0000002-24-24.0000002zm0 32.0000002c-4.417969 0-8-3.582031-8-8s3.582031-8 8-8 8 3.582031 8 8-3.582031 8-8 8zm0 0"/><path d="m243.210938 40.011719c-22.089844 0-39.996094 17.90625-39.996094 39.996093 0 22.089844 17.90625 40 39.996094 40 22.089843 0 40-17.910156 40-40-.027344-22.078124-17.921876-39.972656-40-39.996093zm0 63.996093c-13.253907 0-24-10.746093-24-24 0-13.253906 10.746093-24 24-24 13.253906 0 24 10.746094 24 24 0 13.253907-10.746094 24-24 24zm0 0"/><path d="m131.21875 56.007812c-17.671875 0-32 14.328126-32 32 0 17.671876 14.328125 32 32 32s31.996094-14.328124 31.996094-32c0-17.671874-14.324219-32-31.996094-32zm0 48c-8.839844 0-16-7.164062-16-16 0-8.835937 7.160156-16 16-16 8.835938 0 15.996094 7.164063 15.996094 16 0 8.835938-7.164063 16-15.996094 16zm0 0"/><path d="m83.21875.0117188c-13.253906 0-23.996094 10.7460932-23.996094 24.0000002 0 13.253906 10.742188 23.996093 23.996094 23.996093s24-10.742187 24-23.996093c0-13.253907-10.746094-24.0000002-24-24.0000002zm0 32.0000002c-4.417969 0-8-3.582031-8-8s3.582031-8 8-8 8 3.582031 8 8-3.582031 8-8 8zm0 0"/><path d="m277.417969 257.007812 15.136719-5.148437 51.742187 152.070313-15.140625 5.148437zm0 0"/><path d="m236.492188 270.886719 15.136718-5.152344 51.742188 152.070313-15.140625 5.152343zm0 0"/><path d="m318.339844 243.054688 15.140625-5.148438 51.722656 152.070312-15.136719 5.148438zm0 0"/><path d="m470.601562 295.660156-37.800781-111.136718c-8.011719-23.5625-33.605469-36.167969-57.167969-28.15625-.003906.003906-.007812.003906-.011718.003906l-21.679688 7.375-1.398437-4.125c-10.191407-30.023438-42.789063-46.101563-72.808594-35.910156-10.804687 3.664062-20.269531 10.464843-27.1875 19.535156-13.996094-1.046875-27.664063 4.589844-36.855469 15.199218-1.726562-.566406-3.488281-1.007812-5.277344-1.328124-5.914062-1.027344-11.972656-.863282-17.824218.480468-22.90625-21.929687-59.246094-21.136718-81.175782 1.769532-7.871093 8.222656-13.125 18.605468-15.082031 29.820312l-.753906 4.296875-22.558594-3.945313c-24.515625-4.289062-47.863281 12.105469-52.15625 36.621094v.007813l-20.191406 115.625c-4.253906 24.515625 12.136719 47.847656 36.636719 52.160156l22.550781 3.941406-.71875 4.113281c-10.945313 2.554688-17.746094 13.5-15.191406 24.445313 1.859375 7.953125 8.292969 14.027344 16.34375 15.425781l170.390625 29.796875c1.160156.207031 2.332031.3125 3.503906.3125 7.953125-.035156 15.15625-4.695312 18.449219-11.933593 3.558593.8125 7.277343.605468 10.726562-.59375l163.777344-55.71875c10.644531-3.621094 16.335937-15.1875 12.714844-25.832032-2.625-7.71875-9.601563-13.125-17.730469-13.742187l-1.34375-3.941407 21.667969-7.375c23.546875-8.042968 36.136719-33.625 28.152343-57.191406zm-130.59375-123.3125 2.804688 8.253906-55.042969 18.726563-2.832031-8.253906zm-133.121093 6.101563c3.371093-1.144531 6.925781-1.652344 10.484375-1.492188 2.925781.144531 5.6875-1.332031 7.191406-3.839843l.027344.007812c6.277344-10.390625 18.367187-15.761719 30.285156-13.457031 3.242188.621093 6.535156-.808594 8.289062-3.609375 5.007813-8.054688 12.660157-14.117188 21.644532-17.15625 18.734375-6.347656 39.34375 1.421875 49.222656 18.558594l-61.851562 21.046874c-4.171876 1.433594-6.394532 5.976563-4.96875 10.152344l11.933593 35.09375c1.679688 5.570313-1.480469 11.445313-7.050781 13.125-5.292969 1.59375-10.917969-1.175781-12.882812-6.34375l-4-11.695312c-1.285157-4.226563-5.757813-6.609375-9.984376-5.320313-4.226562 1.289063-6.609374 5.757813-5.320312 9.984375.050781.167969.105469.332032.167969.496094 1.773437 5.542969-1.285157 11.472656-6.828125 13.242188-5.402344 1.726562-11.203125-1.136719-13.121094-6.476563l-8-23.398437c-1.425781-4.175782-5.964844-6.410157-10.144531-4.992188l-14.628907 4.976562c-.65625-12.910156 7.308594-24.695312 19.535157-28.902343zm-4.480469 49.953125-8.257812 2.804687-2.796876-8.253906 8.246094-2.800781zm-42.34375-70.140625.023438.007812c9.367187 1.601563 17.878906 6.410157 24.089843 13.597657.417969.453124.894531.855468 1.40625 1.199218-6.234375 5.84375-10.691406 13.332032-12.855469 21.601563l-58.398437-10.457031c7.109375-18.445313 26.253906-29.308594 45.734375-25.949219zm-49.324219 41.636719 60.773438 10.863281c.316406 3.023437.945312 6.003906 1.871093 8.894531l-64.140624-11.199219zm-70.714843 178.292968c-15.789063-2.804687-26.332032-17.847656-23.59375-33.644531l20.230468-115.632813c2.753906-15.804687 17.796875-26.386718 33.601563-23.632812.015625.003906.03125.003906.046875.007812l22.542968 3.9375-1.496093 8.589844-16.464844-2.878906c-14.433594-2.527344-28.183594 7.128906-30.710937 21.5625-.003907.011719-.003907.023438-.007813.035156l-18.09375 103.460938c-2.515625 14.441406 7.15625 28.191406 21.597656 30.710937l16.464844 2.878907-1.496094 8.589843zm48.570312-144.613281-21.71875 124.214844-16.476562-2.878907c-5.726563-1.003906-9.558594-6.460937-8.554688-12.1875 0 0 .003906 0 .003906-.003906l18.09375-103.464844c1.019532-5.722656 6.464844-9.542968 12.191406-8.5625zm149.902344 218.792969c-.417969 2.371094-2.679688 3.957031-5.050782 3.539062v.015625l-170.394531-29.808593c-2.382812-.332032-4.046875-2.535157-3.714843-4.917969.335937-2.386719 2.539062-4.050781 4.921874-3.714844.101563.011719.199219.03125.296876.050781 4.355468.757813 8.496093-2.152344 9.257812-6.503906l32.6875-186.878906 72.714844 12.71875 55.75 163.921875-6.519532 37.269531c-.367187 2.089844.113282 4.238281 1.335938 5.976562 1.222656 1.734376 3.082031 2.914063 5.175781 3.277344 2.371094.417969 3.957031 2.679688 3.539063 5.054688zm186.21875-69.304688c.777344 2.273438-.433594 4.746094-2.707032 5.523438-.003906 0-.003906.003906-.003906.003906l-163.777344 55.722656c-2.28125.78125-4.757812-.433594-5.539062-2.714844s.433594-4.757812 2.714844-5.539062c4.183594-1.421875 6.421875-5.964844 5-10.148438v-.003906l-61.09375-179.597656 9.535156-3.242188c8.625 11.785157 25.167969 14.347657 36.949219 5.722657 1.433593-1.046875 2.757812-2.238281 3.953125-3.554688 2.207031 2.355469 4.816406 4.289063 7.710937 5.714844 13.148438 6.46875 29.054688 1.054687 35.527344-12.09375 3.105469-6.3125 3.578125-13.597656 1.3125-20.257813l-1.40625-4.121093 55.050781-18.734375 61.101563 179.597656c1.421875 4.183594 5.960937 6.425781 10.148437 5.007812.003906-.003906.007813-.003906.011719-.007812 2.269531-.761719 4.734375.453125 5.511719 2.722656zm-57.644532-180.792968 15.820313-5.382813c5.503906-1.875 11.488281 1.066406 13.363281 6.570313 0 .003906.003906.011718.003906.019531l33.832032 99.429687c1.867187 5.507813-1.078125 11.488282-6.582032 13.367188l-15.824218 5.382812zm70.242188 135.402343-21.667969 7.375-2.839843-8.253906 15.828124-5.386719c13.863282-4.738281 21.273438-19.796875 16.570313-33.667968l-33.839844-99.4375c-4.742187-13.851563-19.792969-21.261719-33.664062-16.574219l-15.820313 5.382812-2.800781-8.246093 21.726563-7.34375c15.203124-5.171876 31.71875 2.957031 36.894531 18.160156l37.773437 111.113281c5.148438 15.195313-2.976562 31.691406-18.160156 36.878906zm0 0"/><path d="m142.125 429.308594 27.675781-158.222656 15.761719 2.757812-27.679688 158.222656zm0 0"/><path d="m184.792969 436.800781 15.515625-94.101562 15.78125 2.601562-15.519532 94.101563zm0 0"/><path d="m99.605469 421.824219 27.675781-158.238281 15.761719 2.753906-27.679688 158.238281zm0 0"/></symbol><symbol id="mask" viewBox="0 0 512 512"><title>mask</title><path id="XMLID_580_" d="M155.815,108.059c-41.679-6.755-54.985-12.296-67.8-28.233C85.357,76.52,80.9,75.25,76.9,76.66 c-4.001,1.409-6.678,5.19-6.678,9.432c0,70.105,31.282,97.402,57.524,107.957c10.523,4.232,21.226,6.343,31.873,6.343 c13.042,0,25.999-3.168,38.429-9.484c16.782-8.527,26.756-19.901,27.173-20.381c2.496-2.878,3.141-6.924,1.662-10.435 C226.135,158.318,207.967,116.51,155.815,108.059z M135.209,175.494c-24.516-9.86-39.107-31.91-43.539-65.689 c14.472,9.066,32.891,13.45,60.946,17.996c30.768,4.986,46.511,24.375,52.679,34.269 C194.928,171.095,168.707,188.966,135.209,175.494z"/><path id="XMLID_581_" d="M404.364,222.088c-0.052,0.021-0.132,0.056-0.184,0.078c-5.06,2.214-7.367,8.11-5.153,13.17 c1.643,3.755,5.314,5.994,9.167,5.994c1.308,0,2.638-0.258,3.915-0.803c0.012-0.005,0.024-0.01,0.032-0.014 c5.075-2.153,7.441-8.002,5.302-13.083C415.305,222.351,409.45,219.964,404.364,222.088z"/><path id="XMLID_582_" d="M499.634,2.628c-7.628-3.981-16.751-3.396-23.808,1.526l-22.888,15.961 c-20.036,13.973-43.439,22.948-67.682,25.955l-19,2.356c-43.131,5.35-82.631,27.081-110.257,60.26 c-27.626-33.179-67.126-54.911-110.257-60.26l-19-2.356c-24.242-3.007-47.646-11.982-67.682-25.955L36.174,4.153 c-7.058-4.922-16.181-5.506-23.808-1.526C4.738,6.608,0,14.425,0,23.028v67.376c0,89.706,72.981,162.688,162.687,162.688h1.382 c32.464,0,64.11-8.71,91.93-25.246c27.82,16.535,59.466,25.246,91.93,25.246h1.382c7.15,0,14.346-0.469,21.389-1.395 c5.476-0.719,9.332-5.742,8.612-11.217c-0.719-5.476-5.747-9.329-11.217-8.612c-6.182,0.812-12.501,1.224-18.783,1.224h-1.382 c-30.744,0-60.663-8.787-86.522-25.412c-0.072-0.047-0.148-0.083-0.221-0.127c-0.177-0.107-0.355-0.213-0.537-0.309 c-0.133-0.07-0.268-0.133-0.402-0.196c-0.153-0.072-0.305-0.142-0.461-0.206c-0.166-0.068-0.333-0.128-0.5-0.187 c-0.13-0.045-0.26-0.09-0.392-0.13c-0.186-0.057-0.374-0.105-0.562-0.151c-0.123-0.03-0.245-0.058-0.369-0.083 c-0.19-0.038-0.381-0.069-0.572-0.096c-0.132-0.019-0.263-0.035-0.396-0.049c-0.178-0.018-0.356-0.03-0.535-0.038 c-0.153-0.007-0.305-0.011-0.458-0.012c-0.156,0-0.312,0.005-0.468,0.012c-0.175,0.008-0.349,0.02-0.524,0.037 c-0.136,0.014-0.271,0.031-0.407,0.05c-0.188,0.026-0.375,0.057-0.561,0.094c-0.128,0.025-0.254,0.055-0.38,0.085 c-0.184,0.044-0.368,0.092-0.551,0.148c-0.136,0.041-0.27,0.087-0.405,0.134c-0.164,0.057-0.327,0.116-0.488,0.182 c-0.161,0.065-0.318,0.138-0.475,0.212c-0.13,0.061-0.259,0.121-0.387,0.189c-0.189,0.099-0.372,0.207-0.554,0.318 c-0.069,0.042-0.141,0.076-0.209,0.12c-25.86,16.625-55.779,25.412-86.522,25.412h-1.382C84.009,233.092,20,169.083,20,90.405 V23.028c0-1.588,1.014-2.354,1.618-2.669c0.604-0.317,1.813-0.709,3.115,0.2L47.622,36.52 c22.694,15.826,49.203,25.991,76.66,29.397l19,2.356c42.01,5.21,80.118,28.024,104.553,62.591 c0.028,0.04,0.061,0.075,0.089,0.114c0.121,0.166,0.25,0.327,0.382,0.487c0.089,0.107,0.177,0.215,0.269,0.318 c0.114,0.127,0.235,0.248,0.356,0.37c0.125,0.126,0.251,0.25,0.382,0.368c0.099,0.089,0.202,0.174,0.305,0.259 c0.163,0.136,0.329,0.268,0.499,0.392c0.038,0.027,0.071,0.059,0.11,0.086c0.059,0.042,0.121,0.074,0.18,0.114 c0.178,0.12,0.358,0.236,0.543,0.344c0.114,0.067,0.229,0.129,0.345,0.191c0.166,0.088,0.333,0.173,0.503,0.252 c0.142,0.066,0.284,0.127,0.428,0.186c0.147,0.06,0.296,0.117,0.445,0.17c0.166,0.059,0.332,0.113,0.5,0.162 c0.136,0.04,0.272,0.077,0.41,0.111c0.178,0.044,0.355,0.084,0.534,0.118c0.138,0.027,0.277,0.049,0.417,0.07 c0.174,0.026,0.347,0.048,0.522,0.064c0.153,0.015,0.306,0.024,0.46,0.032c0.159,0.008,0.317,0.013,0.476,0.013 c0.173,0,0.345-0.005,0.518-0.014c0.14-0.007,0.279-0.016,0.417-0.029c0.188-0.017,0.375-0.041,0.562-0.069 c0.126-0.019,0.252-0.04,0.378-0.063c0.191-0.036,0.38-0.078,0.569-0.126c0.126-0.031,0.251-0.065,0.375-0.102 c0.179-0.052,0.356-0.11,0.532-0.172c0.139-0.049,0.277-0.102,0.414-0.158c0.153-0.062,0.305-0.128,0.457-0.198 c0.161-0.075,0.319-0.155,0.477-0.238c0.124-0.066,0.247-0.133,0.368-0.204c0.177-0.104,0.35-0.215,0.521-0.33 c0.064-0.043,0.13-0.078,0.193-0.123c0.041-0.029,0.077-0.062,0.117-0.092c0.164-0.12,0.323-0.247,0.481-0.378 c0.109-0.09,0.217-0.179,0.321-0.272c0.127-0.114,0.248-0.235,0.37-0.356c0.125-0.125,0.249-0.25,0.367-0.38 c0.09-0.1,0.176-0.205,0.263-0.31c0.134-0.161,0.264-0.323,0.386-0.491c0.029-0.039,0.061-0.074,0.089-0.114 c24.435-34.567,62.543-57.38,104.553-62.591l19-2.356c27.458-3.406,53.966-13.571,76.66-29.397l22.888-15.961 c1.302-0.908,2.511-0.516,3.115-0.2c0.604,0.315,1.618,1.082,1.618,2.669v67.376c0,44.185-19.982,85.165-54.822,112.434 c-4.349,3.404-5.115,9.689-1.711,14.039c1.973,2.52,4.912,3.837,7.882,3.837c2.155,0,4.328-0.694,6.157-2.125 c17.709-13.86,32.039-30.835,42.495-49.851v333.257c0,5.522,4.477,10,10,10s10-4.478,10-10V23.028 C512,14.425,507.262,6.608,499.634,2.628z"/><path id="XMLID_1120_" d="M435.1,76.66c-4.002-1.41-8.457-0.14-11.115,3.166c-12.815,15.937-26.122,21.478-67.8,28.233 c-52.151,8.451-70.319,50.259-71.067,52.035c-1.479,3.511-0.834,7.557,1.662,10.435c0.417,0.48,10.391,11.854,27.173,20.381 c12.432,6.316,25.386,9.484,38.429,9.484c10.646,0,21.351-2.111,31.873-6.343c26.242-10.555,57.524-37.852,57.524-107.957 C441.778,81.85,439.101,78.069,435.1,76.66z M376.791,175.494c-33.708,13.555-59.753-4.291-70.105-13.395 c6.155-9.884,21.897-29.307,52.698-34.298c28.055-4.546,46.474-8.93,60.946-17.996 C415.898,143.584,401.307,165.633,376.791,175.494z"/><path id="XMLID_1125_" d="M420.902,317.303c-3.687-2.074-8.279-1.602-11.47,1.175c-16.318,14.213-38.998,18.206-59.189,10.416 l-19.782-7.63c-9.023-3.48-18.502-5.245-28.175-5.245c-20.912,0-40.572,8.144-55.359,22.93L240,345.877l-6.927-6.928 c-14.787-14.786-34.447-22.93-55.359-22.93c-9.672,0-19.151,1.765-28.174,5.245l-19.783,7.63 c-20.191,7.787-42.87,3.798-59.189-10.416c-3.19-2.779-7.784-3.25-11.47-1.175c-3.045,1.712-4.923,4.854-5.082,8.244 c-0.01,0.133-0.016,0.287-0.016,0.472v135.976c0,5.522,4.477,10,10,10s10-4.478,10-10v-85.512 c22.162,32.083,59.101,52.536,100.366,52.536h12.223c19.004,0,37.331-5.176,53.411-15.027 c16.08,9.852,34.406,15.027,53.411,15.027h12.223c59.562,0,110.123-42.604,120.221-101.305 C426.572,323.546,424.589,319.377,420.902,317.303z M305.634,409.019h-12.223c-17.158,0-33.628-5.242-47.631-15.16 c-1.731-1.227-3.755-1.84-5.78-1.84s-4.048,0.613-5.78,1.84c-14.003,9.918-30.473,15.16-47.631,15.16h-12.223 c-41.502,0-77.777-24.741-93.598-61.395c17.787,6.842,37.758,7.038,56.186-0.07l19.783-7.63 c6.717-2.592,13.775-3.905,20.977-3.905c15.57,0,30.208,6.063,41.216,17.072l13.999,13.999c1.875,1.875,4.419,2.929,7.071,2.929 s5.196-1.054,7.071-2.929l13.999-13.999c11.009-11.009,25.646-17.072,41.217-17.072c7.201,0,14.259,1.313,20.977,3.905 l19.783,7.63c18.428,7.107,38.398,6.914,56.186,0.069C383.411,384.277,347.136,409.019,305.634,409.019z"/><path id="XMLID_1126_" d="M64,491.995c-2.63,0-5.21,1.069-7.07,2.93c-1.86,1.86-2.93,4.44-2.93,7.07s1.07,5.21,2.93,7.069 c1.86,1.86,4.44,2.931,7.07,2.931c2.63,0,5.21-1.07,7.07-2.931c1.86-1.859,2.93-4.439,2.93-7.069s-1.07-5.21-2.93-7.07 S66.63,491.995,64,491.995z"/></symbol><symbol id="airplane" viewBox="0 -2 485.072 485"><title>airplane</title><path d="m432 248.035156c.003906-11.109375-.957031-22.199218-2.863281-33.144531l-15.761719 2.753906c11.734375 67.25-16.476562 135.21875-72.382812 174.390625l-12.886719-21.039062c-4.359375-7.054688-4.738281-15.867188-1.007813-23.273438l3.636719-7.269531c1.347656-2.714844 4.121094-4.429687 7.152344-4.417969h11.28125c9.824219.03125 18.667969-5.953125 22.289062-15.085937l10.824219-27.074219c1.140625-2.832031 1.726562-5.863281 1.71875-8.917969v-17.601562c.011719-4.246094-1.675781-8.324219-4.6875-11.320313l-9.601562-9.597656c-4.867188-4.875-12.308594-6.082031-18.472657-3l-19.6875 9.847656c-2.25 1.125-4.898437 1.125-7.152343 0l-32-16c-2.703126-1.351562-4.40625-4.117187-4.398438-7.136718v-22.113282c0-8.835937-7.164062-16-16-16-4.417969 0-8-3.582031-8-8v-8c0-2.515625 1.1875-4.886718 3.199219-6.398437l25.601562-19.199219-9.601562-12.800781-25.597657 19.199219c-6.027343 4.546874-9.582031 11.652343-9.601562 19.199218v8c0 13.253906 10.746094 24 24 24v22.113282c-.03125 9.097656 5.113281 17.421874 13.265625 21.464843l32 16c6.761719 3.363281 14.707031 3.363281 21.46875 0l19.691406-9.839843 9.597657 9.597656v17.601562c.003906 1.015625-.195313 2.023438-.574219 2.96875l-10.832031 27.078125c-1.203126 3.046875-4.152344 5.042969-7.425782 5.03125h-11.28125c-9.097656-.03125-17.421875 5.113281-21.460937 13.265625l-3.640625 7.273438c-6.21875 12.339844-5.585938 27.027344 1.671875 38.789062l13.039062 21.289063c-49.28125 28.371093-109.261719 31.082031-160.902343 7.28125l9.816406-6.554688c1.304687-.875 2.839844-1.347656 4.414062-1.359375h20.519532c6.371093.019532 12.484374-2.511718 16.976562-7.03125l22.625-22.625c4.515625-4.492187 7.050781-10.605468 7.03125-16.976562v-36.949219c0-4.335937-1.175781-8.589844-3.398438-12.3125l-17.089843-28.578125c-4.371094-7.136719-12.132813-11.5-20.503907-11.527344h-22.449218c-8.035156-.007812-15.542969 4.003906-20 10.6875l-8.839844 13.3125h-19.71875c-8.835938 0-16 7.164063-16 16v15.28125c0 2.714844-1.378906 5.246094-3.664062 6.71875l-24.960938 16.097656c-17.902344-28.117187-27.402344-60.765624-27.375-94.097656 0-2.679687.078125-5.34375.199219-8h13.914062c3.03125-.007812 5.804688 1.707032 7.152344 4.425782l9.367187 18.773437c2.707032 5.417969 8.253907 8.828125 14.3125 8.800781h8.445313c5.027344.007813 9.765625-2.34375 12.792969-6.355468 3.03125-4.011719 4-9.210938 2.617187-14.042969l-10.191406-35.601563h15.789063c5.453124 0 10.738281-1.855468 14.992187-5.261718l26.113281-20.890626c8.410156-6.75 11.296875-18.273437 7.0625-28.191406l-13.695312-32c-1.578125-3.679687-.191406-7.957031 3.242187-10.015625l20.144531-12.085937c7.300782-4.402344 11.734376-12.339844 11.652344-20.867188l-.132812-11.703125c25.800781-4.84375 52.363281-3.84375 77.726562 2.929688l4.097656-15.425781c-79.453124-21.246094-163.613281 10.46875-209.28125 78.867187-45.667968 68.398437-42.703124 158.285156 7.375 223.523437 50.078126 65.242188 136.144532 91.339844 214.023438 64.902344s130.269531-99.539062 130.28125-181.78125zm-240.199219-169.230468.09375 8.144531c.035157 2.84375-1.445312 5.488281-3.886719 6.949219l-20.152343 12.089843c-10.257813 6.207031-14.394531 19.011719-9.703125 30.046875l13.695312 32c1.417969 3.304688.457032 7.152344-2.351562 9.402344l-26.113282 20.886719c-1.417968 1.117187-3.175781 1.71875-4.984374 1.710937h-15.789063c-5.027344-.007812-9.765625 2.347656-12.792969 6.359375-3.03125 4.007813-4 9.210938-2.617187 14.042969l10.191406 35.597656h-8.445313l-9.371093-18.734375c-4.039063-8.152343-12.363281-13.296875-21.460938-13.265625h-12.433593c9.632812-69.085937 59.066406-126.007812 126.121093-145.230468zm-91.242187 276.429687 24.449218-15.757813c6.863282-4.40625 11.003907-12.007812 10.992188-20.160156v-15.28125h19.71875c5.351562 0 10.347656-2.675781 13.3125-7.128906l8.871094-13.308594c1.484375-2.226562 3.984375-3.5625 6.65625-3.5625h22.449218c2.769532.003906 5.34375 1.4375 6.800782 3.792969l17.054687 28.527344c.746094 1.238281 1.136719 2.652343 1.136719 4.097656v36.949219c0 2.125-.839844 4.164062-2.34375 5.664062l-22.625 22.625c-1.5 1.503906-3.539062 2.347656-5.664062 2.34375h-20.519532c-4.742187 0-9.382812 1.40625-13.328125 4.039063l-17.0625 11.394531c-19.277343-11.457031-36.210937-26.46875-49.898437-44.234375zm0 0"/><path d="m16.542969 255.820312-15.957031 1.113282c.375 5.414062.941406 10.894531 1.6875 16.277344l15.855468-2.191407c-.695312-5.023437-1.234375-10.183593-1.585937-15.199219zm0 0"/><path d="m40.800781 137.453125-14.214843-7.34375c-2.496094 4.796875-4.859376 9.816406-7.019532 14.824219l14.691406 6.34375c2.03125-4.671875 4.238282-9.320313 6.542969-13.824219zm0 0"/><path d="m20.734375 286.074219-15.664063 3.289062c1.121094 5.335938 2.402344 10.679688 3.90625 15.90625l15.390626-4.34375c-1.367188-4.890625-2.589844-9.867187-3.632813-14.851562zm0 0"/><path d="m20.535156 194.964844-15.679687-3.199219c-1.078125 5.300781-2 10.742187-2.71875 16.148437l15.855469 2.121094c.671874-5.046875 1.527343-10.121094 2.542968-15.070312zm0 0"/><path d="m56.664062 111.308594-13.089843-9.214844c-3.117188 4.4375-6.132813 9.054688-8.957031 13.71875l13.679687 8.296875c2.640625-4.363281 5.457031-8.664063 8.367187-12.800781zm0 0"/><path d="m28.6875 165.515625-15.085938-5.3125c-1.816406 5.160156-3.464843 10.402344-4.914062 15.632813l15.425781 4.265624c1.335938-4.867187 2.878907-9.769531 4.574219-14.585937zm0 0"/><path d="m16.488281 225.242188-16-1.039063c-.324219 5.222656-.488281 10.5-.488281 15.832031v.511719l16-.511719c0-4.964844.164062-9.894531.488281-14.792968zm0 0"/><path d="m29.015625 315.484375-15.054687 5.390625c1.839843 5.136719 3.863281 10.25 6.03125 15.199219l14.664062-6.398438c-2.023438-4.632812-3.921875-9.398437-5.640625-14.191406zm0 0"/><path d="m75.910156 87.546875-11.71875-10.886719c-3.703125 4-7.320312 8.152344-10.734375 12.359375l12.429688 10.082031c3.183593-3.9375 6.5625-7.824218 10.023437-11.554687zm0 0"/><path d="m208.800781 18.203125-2.242187-15.855469c-5.359375.746094-10.789063 1.695313-16.132813 2.816406l3.285157 15.671876c4.984374-1.0625 10.058593-1.945313 15.089843-2.632813zm0 0"/><path d="m239.265625 16.035156-.066406-15.9999998c-5.472657 0-10.976563.2187498-16.359375.6015628l1.136718 16c5.050782-.402344 10.144532-.601563 15.289063-.601563zm0 0"/><path d="m178.863281 24.484375-4.34375-15.398437c-5.207031 1.46875-10.464843 3.148437-15.597656 5l5.40625 15.054687c4.792969-1.71875 9.679687-3.28125 14.535156-4.65625zm0 0"/><path d="m98.191406 66.636719-10.128906-12.382813c-4.207031 3.4375-8.351562 7.070313-12.308594 10.789063l10.949219 11.664062c3.695313-3.472656 7.570313-6.863281 11.488281-10.070312zm0 0"/><path d="m150.144531 34.789062-6.402343-14.65625c-4.949219 2.167969-9.910157 4.550782-14.75 7.078126l7.40625 14.175781c4.496093-2.359375 9.121093-4.550781 13.746093-6.597657zm0 0"/><path d="m123.089844 48.925781-8.371094-13.640625c-4.640625 2.847656-9.230469 5.886719-13.648438 9.03125l9.273438 13.039063c4.128906-2.917969 8.410156-5.777344 12.746094-8.429688zm0 0"/><path d="m329.398438 445.484375 6.402343 14.664063c4.984375-2.167969 9.941407-4.542969 14.757813-7.046876l-7.359375-14.195312c-4.511719 2.335938-9.152344 4.554688-13.800781 6.578125zm0 0"/><path d="m403.742188 392.882812 11.699218 10.929688c3.710938-4 7.335938-8.128906 10.765625-12.34375l-12.40625-10.105469c-3.207031 3.9375-6.601562 7.816407-10.058593 11.519531zm0 0"/><path d="m381.425781 413.757812 10.109375 12.398438c4.207032-3.433594 8.351563-7.054688 12.328125-10.761719l-10.917969-11.695312c-3.730468 3.484375-7.570312 6.835937-11.519531 10.058593zm0 0"/><path d="m423.054688 369.171875 13.066406 9.265625c3.136718-4.441406 6.167968-9.042969 8.992187-13.699219l-13.664062-8.316406c-2.648438 4.300781-5.464844 8.605469-8.394531 12.75zm0 0"/><path d="m356.488281 431.402344 8.3125 13.65625c4.625-2.824219 9.222657-5.847656 13.671875-8.992188l-9.25-13.054687c-4.117187 2.9375-8.421875 5.761719-12.734375 8.390625zm0 0"/><path d="m300.65625 455.722656 4.320312 15.410156c5.222657-1.464843 10.480469-3.136718 15.609376-4.960937l-5.386719-15.070313c-4.800781 1.734376-9.671875 3.261719-14.542969 4.621094zm0 0"/><path d="m463.488281 255.324219 15.960938 1.070312c.367187-5.421875.550781-10.925781.550781-16.359375h-16c0 5.136719-.171875 10.234375-.511719 15.289063zm0 0"/><path d="m459.367188 285.589844 15.671874 3.199218c1.097657-5.304687 2.023438-10.746093 2.761719-16.144531l-15.855469-2.152343c-.6875 5.078124-1.554687 10.144531-2.578124 15.097656zm0 0"/><path d="m451.152344 315.011719 15.070312 5.351562c1.832032-5.152343 3.496094-10.398437 4.953125-15.617187l-15.414062-4.300782c-1.363281 4.855469-2.914063 9.757813-4.609375 14.566407zm0 0"/><path d="m438.953125 343.058594 14.207031 7.371094c2.503906-4.800782 4.871094-9.800782 7.039063-14.800782l-14.671875-6.402344c-2.023438 4.679688-4.238282 9.328126-6.574219 13.832032zm0 0"/><path d="m41.238281 343.4375-14.183593 7.40625c2.519531 4.800781 5.234374 9.601562 8.058593 14.230469l13.6875-8.34375c-2.671875-4.308594-5.199219-8.78125-7.5625-13.292969zm0 0"/><path d="m88.800781 426.4375c4.238281 3.445312 8.632813 6.773438 13.054688 9.894531l9.199219-13.097656c-4.164063-2.941406-8.230469-6.019531-12.199219-9.230469zm0 0"/><path d="m144.648438 460.347656c4.96875 2.152344 10.105468 4.175782 15.273437 6.007813l5.335937-15.085938c-4.800781-1.714843-9.601562-3.59375-14.234374-5.601562zm0 0"/><path d="m115.542969 445.285156c4.671875 2.839844 9.480469 5.535156 14.296875 8l7.351562-14.21875c-4.496094-2.320312-8.976562-4.839844-13.34375-7.488281zm0 0"/><path d="m64.800781 404.09375c3.734375 4 7.640625 7.878906 11.589844 11.566406l10.914063-11.710937c-3.695313-3.441407-7.34375-7.074219-10.832032-10.792969zm0 0"/><path d="m57.175781 369.5-13.054687 9.246094c3.144531 4.433594 6.480468 8.800781 9.917968 13.027344l12.359376-10.136719c-3.199219-3.921875-6.292969-8-9.222657-12.136719zm0 0"/><path d="m270.742188 461.941406 2.167968 15.847656c5.371094-.738281 10.800782-1.664062 16.144532-2.777343l-3.246094-15.664063c-5.007813 1.03125-10.054688 1.90625-15.066406 2.59375zm0 0"/><path d="m207.609375 477.867188c5.351563.722656 10.832031 1.273437 16.292969 1.601562l1.066406-16c-5.113281-.335938-10.226562-.855469-15.199219-1.527344zm0 0"/><path d="m240.238281 464.035156v16c5.480469 0 10.984375-.191406 16.371094-.566406l-1.097656-16c-5.039063.378906-10.128907.566406-15.273438.566406zm0 0"/><path d="m175.542969 471.277344c5.257812 1.460937 10.617187 2.757812 15.921875 3.847656l3.199218-15.671875c-4.953124-1.015625-9.953124-2.226563-14.847656-3.585937zm0 0"/><path d="m305.601562 67.546875-4.601562 78.242187c-.667969 11.40625 3.570312 22.554688 11.648438 30.640626l15.519531 15.503906 28.246093-73.496094 28.554688 28.550781v35.3125c-.011719 6.355469 2.519531 12.457031 7.03125 16.933594l13.871094 13.882813 16.96875-28.28125 4.070312 4.0625c6.027344 6.242187 14.949219 8.742187 23.34375 6.546874 8.390625-2.195312 14.941406-8.75 17.140625-17.140624 2.195313-8.390626-.308593-17.316407-6.546875-23.339844l-4.0625-4.066406 28.285156-16.972657-13.871093-13.890625c-4.488281-4.519531-10.597657-7.050781-16.96875-7.03125h-35.328125l-28.503906-28.542968 73.539062-28.28125-15.554688-15.527344c-8.074218-8.085938-19.226562-12.320313-30.628906-11.640625l-78.242187 4.601562-25.734375-25.746093c-9.5-9.0625-24.445313-9.0625-33.945313 0-9.375 9.375-9.375 24.570312 0 33.945312zm16.527344 95.503906c-3.664062-4.625-5.5-10.4375-5.160156-16.328125l3.765625-64 23.328125 23.328125zm80.589844 24.183594c-1.128906-1.421875-1.746094-3.183594-1.75-5v-19.285156l10.230469 10.214843zm51.503906-58.253906c1.816406.003906 3.578125.621093 5 1.75l-14.09375 8.503906-10.21875-10.207031zm-35.535156-84c5.890625-.347657 11.707031 1.492187 16.328125 5.160156l-57.03125 21.933594-23.328125-23.328125zm-127.535156-25.792969c3.121094-3.117188 8.179687-3.117188 11.304687 0l147.078125 147.082031c3.117188 3.121094 3.117188 8.179688 0 11.300781-3.164062 3.027344-8.148437 3.027344-11.3125 0l-147.070312-147.078124c-3.117188-3.125-3.117188-8.179688 0-11.304688zm0 0"/></symbol></svg>